<svg width="65" height="65" viewBox="0 0 65 65" fill="none" xmlns="http://www.w3.org/2000/svg">
<g clip-path="url(#clip0_2944_4356)">
<path opacity="0.9" d="M30.9037 64.0732L33.3852 64.0676C33.4823 64.002 33.5947 64.0188 33.7018 64.0133C36.5272 63.8821 39.2943 63.4065 41.9684 62.4859C51.8315 59.0925 58.5848 52.4829 62.2415 42.7246C63.2088 40.1414 63.7422 37.4487 63.9626 34.6952C63.9975 34.2532 63.9645 33.8048 64.0746 33.3691L64.0683 30.558C64.0422 30.4314 64.0225 30.3036 64.0093 30.175C63.8884 27.8196 63.4918 25.4865 62.8275 23.2236C60.7656 16.216 56.7932 10.547 50.9101 6.2166C46.5014 2.97466 41.5555 1.03686 36.1318 0.329847C33.8862 0.0389138 31.6157 -0.00752405 29.3601 0.191348C26.9052 0.404076 24.4984 0.851395 22.1676 1.64569C13.0951 4.73645 6.59974 10.6596 2.6815 19.4152C1.2604 22.5898 0.464654 25.9395 0.183116 29.4103C0.146251 29.8627 0.178621 30.3223 0.0686022 30.7684L0.0747389 33.5141C0.0946367 33.6514 0.12629 33.7886 0.133129 33.9265C0.255237 36.2807 0.650766 38.6127 1.31172 40.8753C3.21226 47.3951 6.80861 52.7847 12.1008 57.0441C17.1901 61.1244 22.9937 63.4297 29.5118 63.9599C29.9755 63.9981 30.4463 63.9565 30.9037 64.0732ZM52.4704 34.0665L58.7395 34.0525C59.2188 34.0514 59.2195 34.0514 59.1657 34.5418C59.0597 35.6116 58.896 36.6747 58.6752 37.7267C57.2574 44.2008 53.9387 49.4793 48.7192 53.5621C44.4603 56.8927 39.6013 58.7517 34.203 59.1789C31.0526 59.4285 27.9339 59.1975 24.9057 58.306C16.0042 55.6893 9.87583 50.0206 6.51753 41.3736C5.66892 39.1874 5.20929 36.8996 4.97878 34.5668C4.95673 34.3407 4.92368 34.1636 5.27959 34.1635C9.5461 34.167 13.8126 34.1575 18.079 34.1348C18.3024 34.1343 18.3861 34.2107 18.4179 34.4159C18.465 34.7158 18.5192 35.0151 18.5917 35.3098C20.3763 42.5625 27.434 47.0734 34.7729 45.6475C40.3826 44.5576 44.7896 40.0302 45.7285 34.3882C45.7659 34.1632 45.8473 34.0695 46.102 34.0703C48.2263 34.0812 50.3487 34.0712 52.4704 34.0665ZM41.6666 32.0431C41.6758 37.315 37.3669 41.6446 32.0943 41.6564C26.8217 41.6682 22.4936 37.3631 22.4772 32.0899C22.4609 26.8167 26.7678 22.4955 32.0515 22.4811C37.3352 22.4667 41.6574 26.7725 41.6666 32.0431Z" fill="#3B82F6"/>
</g>
<defs>
<clipPath id="clip0_2944_4356">
<rect width="64" height="64" fill="white" transform="matrix(-0.999997 0.00223494 0.00223494 0.999997 64 0)"/>
</clipPath>
</defs>
</svg>
